<mxfile host="app.diagrams.net" agent="Mozilla/5.0 (iPhone; CPU iPhone OS 18_3_2 like Mac OS X) AppleWebKit/605.1.15 (KHTML, like Gecko) CriOS/135.0.7049.53 Mobile/15E148 Safari/604.1" version="26.2.8">
  <diagram name="第 1 页" id="9PwF9Sp0ByUeXTIyBDPC">
    <mxGraphModel dx="804" dy="1050" grid="0" gridSize="10" guides="1" tooltips="1" connect="1" arrows="1" fold="1" page="0" pageScale="1" pageWidth="827" pageHeight="1169" math="0" shadow="0">
      <root>
        <mxCell id="0" />
        <mxCell id="1" parent="0" />
        <mxCell id="IWdqiZ-6rEEW08CR87Xv-8" style="edgeStyle=none;curved=1;rounded=0;orthogonalLoop=1;jettySize=auto;html=1;fontSize=12;startSize=8;endSize=8;" edge="1" parent="1" source="IWdqiZ-6rEEW08CR87Xv-1">
          <mxGeometry relative="1" as="geometry">
            <mxPoint x="1" y="-40" as="targetPoint" />
          </mxGeometry>
        </mxCell>
        <mxCell id="IWdqiZ-6rEEW08CR87Xv-1" value="asset" style="whiteSpace=wrap;html=1;" vertex="1" parent="1">
          <mxGeometry x="-59" y="17" width="120" height="53" as="geometry" />
        </mxCell>
        <mxCell id="IWdqiZ-6rEEW08CR87Xv-2" value="trade" style="whiteSpace=wrap;html=1;" vertex="1" parent="1">
          <mxGeometry x="-59" y="173" width="120" height="53" as="geometry" />
        </mxCell>
        <mxCell id="IWdqiZ-6rEEW08CR87Xv-5" style="edgeStyle=elbowEdgeStyle;rounded=0;orthogonalLoop=1;jettySize=auto;html=1;fontSize=12;startSize=8;endSize=8;exitX=0.25;exitY=0;exitDx=0;exitDy=0;" edge="1" parent="1" source="IWdqiZ-6rEEW08CR87Xv-4" target="IWdqiZ-6rEEW08CR87Xv-1">
          <mxGeometry relative="1" as="geometry" />
        </mxCell>
        <mxCell id="IWdqiZ-6rEEW08CR87Xv-6" style="edgeStyle=orthogonalEdgeStyle;rounded=0;orthogonalLoop=1;jettySize=auto;html=1;entryX=0;entryY=0.5;entryDx=0;entryDy=0;fontSize=12;startSize=8;endSize=8;exitX=0.75;exitY=0;exitDx=0;exitDy=0;" edge="1" parent="1" source="IWdqiZ-6rEEW08CR87Xv-4" target="IWdqiZ-6rEEW08CR87Xv-2">
          <mxGeometry relative="1" as="geometry" />
        </mxCell>
        <mxCell id="IWdqiZ-6rEEW08CR87Xv-4" value="user" style="whiteSpace=wrap;html=1;direction=south;" vertex="1" parent="1">
          <mxGeometry x="-171" y="57" width="50" height="120" as="geometry" />
        </mxCell>
      </root>
    </mxGraphModel>
  </diagram>
</mxfile>
